<svg width="500" height="500" viewBox="0 0 500 500" fill="none" xmlns="http://www.w3.org/2000/svg">
<g id="logo" class="logo" filter="url(#filter0_d_62_2)">
<g id="Frame 2--inject-1">
<g id="structure">
<path id="Union--inject-1" fill-rule="evenodd" clip-rule="evenodd" d="M60.8213 392.982C60.9351 398.868 65.4831 404.737 74.4654 409.228L216.937 480.464C235.132 489.561 264.632 489.561 282.827 480.464L425.299 409.228C434.984 404.386 439.513 397.943 438.889 391.602V300.584H270.347C257.471 297.437 242.294 297.437 229.418 300.584H60.8187V392.982H60.8213Z" fill="url(#paint0_linear_62_2)"/>
<path id="Rectangle 464--inject-1" d="M220.232 214.611L77.7599 285.847C61.3844 294.034 61.3844 307.309 77.7599 315.497L220.232 386.733C236.607 394.921 263.157 394.921 279.533 386.733L422.005 315.497C438.38 307.309 438.38 294.034 422.005 285.847L279.533 214.611C263.157 206.423 236.607 206.423 220.232 214.611Z" fill="#2A2043" stroke="#2A2043" stroke-width="7.36672"/>
<g id="Rectangle 465--inject-1" filter="url(#filter1_i_62_2)">
<path id="Vector" d="M230.609 244.332L141.405 288.934C130.012 294.63 130.012 303.866 141.405 309.562L230.609 354.164C242.001 359.86 260.471 359.86 271.863 354.164L361.067 309.562C372.459 303.866 372.459 294.63 361.067 288.934L271.863 244.332C260.471 238.636 242.001 238.636 230.609 244.332Z" fill="#261D3C"/>
</g>
<path id="{ )--inject-1" d="M259.663 276.374C258.642 275.784 257.694 275.405 256.819 275.237C255.992 275.097 254.947 275.251 253.683 275.7C252.467 276.177 250.742 277.061 248.505 278.353L241.358 282.479C239.511 283.546 237.614 284.304 235.67 284.753C233.822 285.202 232.12 285.454 230.564 285.511C229.009 285.567 227.696 285.539 226.626 285.426C226.773 285.96 226.796 286.675 226.699 287.574C226.699 288.472 226.408 289.426 225.824 290.437C225.289 291.419 224.317 292.318 222.907 293.132L214.156 298.184C211.968 299.447 210.461 300.43 209.634 301.132C208.856 301.861 208.589 302.465 208.832 302.942C209.123 303.447 209.78 303.995 210.801 304.584L213.499 306.142L204.602 311.279L198.84 307.953C197.48 307.167 196.142 306.367 194.83 305.553C193.565 304.767 192.618 303.911 191.985 302.984C191.305 302.086 191.256 301.075 191.84 299.953C192.423 298.886 193.881 297.679 196.215 296.332L208.249 289.384C210.436 288.121 211.895 286.718 212.624 285.174C213.402 283.602 212.819 282.226 210.874 281.047L219.333 276.163C221.375 277.286 223.733 277.637 226.408 277.216C229.082 276.795 231.537 275.939 233.773 274.647L245.296 267.995C247.63 266.647 249.72 265.805 251.568 265.468C253.415 265.132 255.117 265.132 256.673 265.468C258.277 265.833 259.785 266.395 261.195 267.153C262.653 267.882 264.087 268.654 265.497 269.468L271.258 272.795L262.361 277.932L259.663 276.374ZM289.021 322.208C284.062 325.071 278.811 327.401 273.268 329.198C267.775 331.022 262.427 332.37 257.225 333.24C251.974 334.138 247.209 334.615 242.93 334.671L238.409 327.598C244.584 327.345 251.098 326.335 257.954 324.566C264.857 322.77 271.664 319.935 278.374 316.061C285.083 312.187 289.969 308.271 293.032 304.313C296.144 300.327 297.894 296.566 298.283 293.029L310.608 295.597C310.511 298.067 309.684 300.818 308.129 303.85C306.573 306.881 304.215 309.983 301.054 313.156C297.991 316.328 293.98 319.345 289.021 322.208Z" fill="#5C566D"/>
</g>
<g id="base" class="base">
<g id="luz--inject-1" filter="url(#filter2_i_62_2)">
<path id="Vector_2" d="M230.609 244.331L141.405 288.933C130.012 294.629 130.012 303.865 141.405 309.561L230.609 354.163C242.001 359.859 260.471 359.859 271.863 354.163L361.067 309.561C372.459 303.865 372.459 294.629 361.067 288.933L271.863 244.331C260.471 238.635 242.001 238.635 230.609 244.331Z" fill="url(#paint1_linear_62_2)"/>
</g>
</g>
<g id="light" class="light">
<path id="luz-logo_2--inject-1" fill-rule="evenodd" clip-rule="evenodd" d="M369.403 72.5224C369.71 69.2072 367.819 63.7194 357.801 59.4463L276.03 19.1137C267.865 13.957 246.306 6.73769 225.384 19.1137L144.719 59.4463C140.851 61.0428 133.006 65.6715 132.564 71.4171V286.894H132.594V299.214C132.287 301.424 134.178 306.912 144.196 311.184L225.967 351.517C234.132 356.674 255.692 363.893 276.613 351.517L357.278 311.184C361.146 309.588 368.992 304.959 369.434 299.214V284.848H369.403V72.5224Z" fill="url(#paint2_linear_62_2)"/>
</g>
<g id="icons">
<path id="logo--inject-1" d="M259.663 276.374C258.642 275.784 257.694 275.405 256.819 275.237C255.992 275.097 254.947 275.251 253.683 275.7C252.467 276.177 250.742 277.061 248.505 278.353L241.358 282.479C239.511 283.546 237.614 284.304 235.67 284.753C233.822 285.202 232.12 285.454 230.564 285.511C229.009 285.567 227.696 285.539 226.626 285.426C226.773 285.96 226.796 286.675 226.699 287.574C226.699 288.472 226.408 289.426 225.824 290.437C225.289 291.419 224.317 292.318 222.907 293.132L214.156 298.184C211.968 299.447 210.461 300.43 209.634 301.132C208.856 301.861 208.589 302.465 208.832 302.942C209.123 303.447 209.78 303.995 210.801 304.584L213.499 306.142L204.602 311.279L198.84 307.953C197.48 307.167 196.142 306.367 194.83 305.553C193.565 304.767 192.618 303.911 191.985 302.984C191.305 302.086 191.256 301.075 191.84 299.953C192.423 298.886 193.881 297.679 196.215 296.332L208.249 289.384C210.436 288.121 211.895 286.718 212.624 285.174C213.402 283.602 212.819 282.226 210.874 281.047L219.333 276.163C221.375 277.286 223.733 277.637 226.408 277.216C229.082 276.795 231.537 275.939 233.773 274.647L245.296 267.995C247.63 266.647 249.72 265.805 251.568 265.468C253.415 265.132 255.117 265.132 256.673 265.468C258.277 265.833 259.785 266.395 261.195 267.153C262.653 267.882 264.087 268.654 265.497 269.468L271.258 272.795L262.361 277.932L259.663 276.374ZM289.021 322.208C284.062 325.071 278.811 327.401 273.268 329.198C267.775 331.022 262.427 332.37 257.225 333.24C251.974 334.138 247.209 334.615 242.93 334.671L238.409 327.598C244.584 327.345 251.098 326.335 257.954 324.566C264.857 322.77 271.664 319.935 278.374 316.061C285.083 312.187 289.969 308.271 293.032 304.313C296.144 300.327 297.894 296.566 298.283 293.029L310.608 295.597C310.511 298.067 309.684 300.818 308.129 303.85C306.573 306.881 304.215 309.983 301.054 313.156C297.991 316.328 293.98 319.345 289.021 322.208Z" fill="#FAFAFA"/>
</g>
</g>
</g>
<defs>
<filter id="filter0_d_62_2" x="-4" y="0" width="508" height="508" filterUnits="userSpaceOnUse" color-interpolation-filters="sRGB">
<feFlood flood-opacity="0" result="BackgroundImageFix"/>
<feColorMatrix in="SourceAlpha" type="matrix" values="0 0 0 0 0 0 0 0 0 0 0 0 0 0 0 0 0 0 127 0" result="hardAlpha"/>
<feOffset dy="4"/>
<feGaussianBlur stdDeviation="2"/>
<feComposite in2="hardAlpha" operator="out"/>
<feColorMatrix type="matrix" values="0 0 0 0 0 0 0 0 0 0 0 0 0 0 0 0 0 0 0.25 0"/>
<feBlend mode="normal" in2="BackgroundImageFix" result="effect1_dropShadow_62_2"/>
<feBlend mode="normal" in="SourceGraphic" in2="effect1_dropShadow_62_2" result="shape"/>
</filter>
<filter id="filter1_i_62_2" x="132.86" y="240.061" width="236.751" height="120.714" filterUnits="userSpaceOnUse" color-interpolation-filters="sRGB">
<feFlood flood-opacity="0" result="BackgroundImageFix"/>
<feBlend mode="normal" in="SourceGraphic" in2="BackgroundImageFix" result="shape"/>
<feColorMatrix in="SourceAlpha" type="matrix" values="0 0 0 0 0 0 0 0 0 0 0 0 0 0 0 0 0 0 127 0" result="hardAlpha"/>
<feOffset dy="9.20836"/>
<feGaussianBlur stdDeviation="1.16959"/>
<feComposite in2="hardAlpha" operator="arithmetic" k2="-1" k3="1"/>
<feColorMatrix type="matrix" values="0 0 0 0 1 0 0 0 0 1 0 0 0 0 1 0 0 0 0.25 0"/>
<feBlend mode="normal" in2="shape" result="effect1_innerShadow_62_2"/>
</filter>
<filter id="filter2_i_62_2" x="132.86" y="240.06" width="236.751" height="120.714" filterUnits="userSpaceOnUse" color-interpolation-filters="sRGB">
<feFlood flood-opacity="0" result="BackgroundImageFix"/>
<feBlend mode="normal" in="SourceGraphic" in2="BackgroundImageFix" result="shape"/>
<feColorMatrix in="SourceAlpha" type="matrix" values="0 0 0 0 0 0 0 0 0 0 0 0 0 0 0 0 0 0 127 0" result="hardAlpha"/>
<feOffset dy="9.20836"/>
<feGaussianBlur stdDeviation="1.16959"/>
<feComposite in2="hardAlpha" operator="arithmetic" k2="-1" k3="1"/>
<feColorMatrix type="matrix" values="0 0 0 0 1 0 0 0 0 1 0 0 0 0 1 0 0 0 0.25 0"/>
<feBlend mode="normal" in2="shape" result="effect1_innerShadow_62_2"/>
</filter>
<linearGradient id="paint0_linear_62_2" x1="60.8187" y1="298.246" x2="439.181" y2="487.135" gradientUnits="userSpaceOnUse">
<stop stop-color="#2A2042"/>
<stop offset="1" stop-color="#120B23" stop-opacity="0"/>
</linearGradient>
<linearGradient id="paint1_linear_62_2" x1="251.168" y1="364.408" x2="309.512" y2="286.616" gradientUnits="userSpaceOnUse">
<stop stop-color="#6513F2"/>
<stop offset="1" stop-color="#02D1FF"/>
</linearGradient>
<linearGradient id="paint2_linear_62_2" x1="251.168" y1="65.689" x2="250.999" y2="358.35" gradientUnits="userSpaceOnUse">
<stop stop-color="#02D1FF" stop-opacity="0"/>
<stop offset="1" stop-color="#02D1FF" stop-opacity="0.15"/>
</linearGradient>
</defs>
</svg>