<svg width="80" height="80" viewBox="0 0 80 80" fill="none" xmlns="http://www.w3.org/2000/svg">
<g id="icon-next">
<g id="icon-next_2" clip-path="url(#clip0_165872_3396)">
<path id="Vector" d="M18.8766 28.5877H33.9653V29.787H20.2597V38.8131H33.1481V40.0123H20.2597V49.9222H34.1225V51.1214H18.8766V28.5877ZM35.3172 28.5877H36.9203L44.0245 38.4975L51.2859 28.5875L61.1627 16L44.9361 39.5391L53.2978 51.1214H51.6317L44.0245 40.5805L36.3858 51.1214H34.7513L43.1758 39.5389L35.317 28.5877H35.3172ZM53.895 29.787V28.5875H71.09V29.7869H63.1683V51.1213H61.7852V29.787H53.895V29.787ZM0 28.5875H1.72891L25.5695 64.263L15.7175 51.1213L1.44594 30.2919L1.38313 51.1216H0V28.5875ZM70.9506 49.56C70.668 49.56 70.4561 49.3413 70.4561 49.0581C70.4561 48.7753 70.668 48.5563 70.9506 48.5563C71.2366 48.5563 71.4452 48.7752 71.4452 49.0581C71.4452 49.3411 71.2366 49.56 70.9506 49.56ZM72.3097 48.2397H73.0498C73.0598 48.6405 73.3525 48.91 73.7831 48.91C74.2642 48.91 74.5367 48.6203 74.5367 48.078V44.642H75.2903V48.0813C75.2903 49.0581 74.7252 49.6208 73.7898 49.6208C72.9117 49.6208 72.3097 49.075 72.3097 48.2395V48.2397ZM76.2759 48.1959H77.0228C77.0867 48.6573 77.5375 48.9503 78.1869 48.9503C78.7923 48.9503 79.2364 48.637 79.2364 48.2059C79.2364 47.8355 78.9537 47.6131 78.3112 47.4616L77.6855 47.31C76.8073 47.1044 76.4072 46.68 76.4072 45.9659C76.4072 45.1003 77.1136 44.5242 78.1733 44.5242C79.1589 44.5242 79.8789 45.1002 79.9227 45.9187H79.1892C79.1186 45.4708 78.7283 45.1911 78.1631 45.1911C77.5678 45.1911 77.1709 45.4775 77.1709 45.9153C77.1709 46.2622 77.4264 46.4611 78.0589 46.6092L78.5938 46.7406C79.5895 46.9731 80 47.3773 80 48.1083C80 49.038 79.2802 49.6208 78.1297 49.6208C77.0531 49.6208 76.3297 49.0648 76.2759 48.1958V48.1959Z" fill="#00DF5E"/>
</g>
</g>
<defs>
<clipPath id="clip0_165872_3396">
<rect width="80" height="48.2812" fill="white" transform="translate(0 16)"/>
</clipPath>
</defs>
</svg>
