<svg width="80" height="80" viewBox="0 0 80 80" fill="none" xmlns="http://www.w3.org/2000/svg">
<path fill-rule="evenodd" clip-rule="evenodd" d="M17.0212 9.1333C12.5356 9.1333 9.21749 13.0608 9.36562 17.3202C9.50749 21.4114 9.32312 26.7114 7.98874 31.0327C6.65124 35.3677 4.38874 38.1077 0.693115 38.4596V42.4514C4.38874 42.8039 6.65124 45.5439 7.98874 49.8783C9.32312 54.1996 9.50812 59.4996 9.36562 63.5908C9.21749 67.8496 12.5356 71.7771 17.0212 71.7771H62.9837C67.4694 71.7771 70.7875 67.8502 70.6394 63.5908C70.4969 59.4996 70.6819 54.1996 72.0156 49.8783C73.3537 45.5433 75.61 42.8039 79.3056 42.4514V38.4596C75.61 38.1071 73.3537 35.3677 72.0156 31.0327C70.6819 26.7114 70.4969 21.4114 70.6394 17.3202C70.7875 13.0608 67.4694 9.1333 62.9837 9.1333H17.0212ZM53.5815 47.9149C53.5815 53.7796 49.2055 57.3352 41.9437 57.3352H28.2478V24.0176H41.8727C47.9282 24.0176 51.9021 27.2964 51.9021 32.3298C51.9021 35.8624 49.2292 39.0256 45.8229 39.5797V39.7644C50.4592 40.2724 53.5815 43.4818 53.5815 47.9149ZM40.5954 28.2429H33.5464V38.1943H39.4837C44.0726 38.1943 46.6035 36.3473 46.6035 33.0454C46.6035 29.9515 44.4274 28.2429 40.5954 28.2429ZM33.5464 42.1425V53.1099H40.8555C45.6338 53.1099 48.1647 51.1934 48.1647 47.5916C48.1647 43.9896 45.5627 42.1425 40.548 42.1425H33.5464Z" fill="#00DF5E"/>
</svg>
