<svg width="300" height="255" viewBox="0 0 300 255" fill="none" xmlns="http://www.w3.org/2000/svg">
<g id="img-hero">
<path d="M289.501 106.533C274.498 125.718 246.189 130.112 222.766 123.43C215.101 121.19 207.708 118.112 200.718 114.251C196.658 112.046 192.695 109.628 188.814 107.051C187.858 106.42 186.903 105.779 185.958 105.125C185.314 104.684 184.672 104.239 184.032 103.787C176.016 98.1477 168.314 91.9608 160.741 85.8095C141.837 70.4539 122.415 54.6256 99.189 47.2991C94.404 45.7904 88.2138 45.0846 85.2547 49.138C82.6874 52.6572 84.2543 57.6397 86.4267 61.4147C94.4849 75.3976 109.112 84.2264 123.752 91.0155C138.392 97.8046 153.9 103.305 166.627 113.231C179.353 123.158 189.069 138.934 186.466 154.86C184.223 168.583 173.018 179.733 159.99 184.593C146.962 189.449 132.432 188.773 118.889 185.619C105.347 182.463 92.4906 176.956 79.4206 172.209C71.5405 169.344 61.2388 167.363 56.01 173.919C51.5942 179.458 54.1323 188.196 59.5098 192.807C64.8873 197.417 72.1654 198.961 79.1098 200.347C100.672 204.653 122.234 208.958 143.796 213.261C150.41 214.579 157.18 215.958 162.942 219.468C168.705 222.974 173.354 229.099 173.189 235.843C173.024 242.49 168.158 248.363 162.195 251.306C156.234 254.245 149.351 254.698 142.711 254.381C117.828 253.19 46.4885 213.656 29.3782 208.603C18.3835 205.359 6.36263 200.593 1.72639 190.11C-4.04615 177.059 5.45287 161.27 18.4191 155.31C31.3822 149.346 46.4108 150.667 60.5394 152.674C74.668 154.681 89.2627 157.236 103.016 153.422C116.769 149.608 129.369 137.176 128.013 122.97C126.831 110.609 115.697 101.295 103.98 97.1894C94.8087 93.9745 85.0507 93.1004 75.4159 91.6532C72.7416 91.255 70.0772 90.8082 67.4386 90.2579C60.6812 88.8421 54.0896 86.7263 47.7706 83.9447C41.1396 81.0319 34.84 77.4165 28.98 73.1605C24.306 69.7708 19.9381 65.9781 15.9263 61.8259C15.3144 61.1913 14.7089 60.5428 14.11 59.8801C13.5402 59.2456 12.9768 58.5981 12.4265 57.9376C5.26509 49.3808 -0.0251454 38.8427 1.56137 27.984C3.14441 17.1545 11.5848 8.13795 21.6341 3.80613C27.4422 1.30352 33.7068 0.183336 40.0491 0.0214599C44.6866 -0.0712236 49.3228 0.262568 53.8992 1.01862C75.0759 4.40508 94.4816 14.694 112.809 25.8343C131.134 36.9746 148.992 49.2028 168.912 57.1444C188.833 65.0893 211.509 68.4531 231.717 61.269C251.926 54.0882 268.528 34.4947 267.541 13.0719C280.944 24.6137 292.334 39.1211 297.378 56.0728C302.422 73.0245 300.395 92.5986 289.501 106.533Z" fill="#3F3D56"/>
<path d="M192.928 84.3931C194.229 84.3931 195.284 83.3382 195.284 82.0369C195.284 80.7357 194.229 79.6808 192.928 79.6808C191.627 79.6808 190.572 80.7357 190.572 82.0369C190.572 83.3382 191.627 84.3931 192.928 84.3931Z" fill="#00DF5E"/>
<path d="M276.132 54.5995C278.144 54.5995 279.775 52.9686 279.775 50.9567C279.775 48.9448 278.144 47.3138 276.132 47.3138C274.121 47.3138 272.49 48.9448 272.49 50.9567C272.49 52.9686 274.121 54.5995 276.132 54.5995Z" fill="#FF6584"/>
<path d="M37.2027 166.911C37.9461 166.911 38.5487 166.309 38.5487 165.565C38.5487 164.822 37.9461 164.219 37.2027 164.219C36.4594 164.219 35.8567 164.822 35.8567 165.565C35.8567 166.309 36.4594 166.911 37.2027 166.911Z" fill="#FF6584"/>
<path d="M75.8368 88.1891C75.8377 89.3566 75.6963 90.5199 75.4159 91.6532C72.7416 91.255 70.0772 90.8082 67.4386 90.2579C60.6812 88.8421 54.0896 86.7263 47.7706 83.9447C48.7868 80.6638 50.9458 77.856 53.8555 76.031C56.7652 74.206 60.2328 73.4849 63.6289 73.9985C67.0249 74.5121 70.1242 76.2263 72.3642 78.8301C74.6042 81.4338 75.8363 84.7544 75.8368 88.1891Z" fill="#FF6584"/>
<path d="M252.822 75.9672C253.582 75.9672 254.199 75.3509 254.199 74.5906C254.199 73.8304 253.582 73.214 252.822 73.214C252.062 73.214 251.446 73.8304 251.446 74.5906C251.446 75.3509 252.062 75.9672 252.822 75.9672Z" fill="#F0F0F0"/>
<path d="M126.882 227.484C127.643 227.484 128.259 226.867 128.259 226.107C128.259 225.347 127.643 224.73 126.882 224.73C126.122 224.73 125.506 225.347 125.506 226.107C125.506 226.867 126.122 227.484 126.882 227.484Z" fill="#F0F0F0"/>
<path d="M146.631 246.585C147.391 246.585 148.008 245.969 148.008 245.208C148.008 244.448 147.391 243.832 146.631 243.832C145.871 243.832 145.255 244.448 145.255 245.208C145.255 245.969 145.871 246.585 146.631 246.585Z" fill="#F0F0F0"/>
<path d="M24.5764 192.195C25.3366 192.195 25.9529 191.578 25.9529 190.818C25.9529 190.058 25.3366 189.441 24.5764 189.441C23.8161 189.441 23.1998 190.058 23.1998 190.818C23.1998 191.578 23.8161 192.195 24.5764 192.195Z" fill="#F0F0F0"/>
<path d="M92.2407 166.618C93.001 166.618 93.6173 166.002 93.6173 165.241C93.6173 164.481 93.001 163.865 92.2407 163.865C91.4805 163.865 90.8641 164.481 90.8641 165.241C90.8641 166.002 91.4805 166.618 92.2407 166.618Z" fill="#F0F0F0"/>
<path d="M85.4419 29.9943C86.2022 29.9943 86.8185 29.378 86.8185 28.6177C86.8185 27.8574 86.2022 27.2411 85.4419 27.2411C84.6816 27.2411 84.0653 27.8574 84.0653 28.6177C84.0653 29.378 84.6816 29.9943 85.4419 29.9943Z" fill="#F0F0F0"/>
<path d="M168.646 137.804C169.407 137.804 170.023 137.188 170.023 136.427C170.023 135.667 169.407 135.051 168.646 135.051C167.886 135.051 167.27 135.667 167.27 136.427C167.27 137.188 167.886 137.804 168.646 137.804Z" fill="#F0F0F0"/>
<path d="M179.007 161.762C179.767 161.762 180.383 161.145 180.383 160.385C180.383 159.625 179.767 159.009 179.007 159.009C178.246 159.009 177.63 159.625 177.63 160.385C177.63 161.145 178.246 161.762 179.007 161.762Z" fill="#F0F0F0"/>
<path d="M54.9224 33.0118C54.9325 39.9624 53.2904 46.8152 50.1311 53.0063C49.7134 53.8221 49.2708 54.6245 48.8035 55.4123C44.177 63.2253 37.255 69.4226 28.98 73.1605C24.306 69.7708 19.9381 65.9781 15.9263 61.8259C15.3144 61.1913 14.7089 60.5428 14.11 59.8801C13.5402 59.2456 12.9768 58.5981 12.4265 57.9376C5.26509 49.3808 -0.0251454 38.8427 1.56137 27.984C3.14441 17.1545 11.5848 8.13795 21.6341 3.80613C27.4422 1.30352 33.7068 0.183336 40.0491 0.0214599C45.0081 4.40088 48.9176 9.84058 51.4874 15.9371C51.8112 16.7044 52.109 17.4814 52.3907 18.2681C54.0709 23.0019 54.9272 27.9887 54.9224 33.0118Z" fill="#00DF5E"/>
<path d="M74.9951 35.2781C74.9951 42.0219 68.41 48.2768 56.4506 52.8967C54.058 53.8227 51.4971 54.6612 48.8035 55.4123C38.7218 58.2225 26.7234 59.7798 14.11 59.8801C13.5402 59.2456 12.9768 58.5981 12.4265 57.9376C12.5625 57.9408 12.6985 57.9408 12.8345 57.9408C26.5325 57.9408 39.5281 56.2049 50.1311 53.0063C52.0897 52.4138 53.9674 51.7733 55.7512 51.0837C66.7459 46.8393 73.0527 41.0773 73.0527 35.2789C73.0527 29.4805 66.7458 23.7201 55.7512 19.4725C54.6634 19.0516 53.5433 18.6502 52.3907 18.2681C52.109 17.4814 51.8112 16.7044 51.4874 15.9371C53.2097 16.4745 54.8641 17.0487 56.4506 17.6595C68.41 22.2794 74.9951 28.5376 74.9951 35.2781Z" fill="#E4E4E4"/>
<path d="M14.8638 11.2166C15.624 11.2166 16.2404 10.6003 16.2404 9.84002C16.2404 9.07975 15.624 8.46343 14.8638 8.46343C14.1035 8.46343 13.4872 9.07975 13.4872 9.84002C13.4872 10.6003 14.1035 11.2166 14.8638 11.2166Z" fill="#F0F0F0"/>
<path d="M43.6778 19.9579C44.4381 19.9579 45.0544 19.3416 45.0544 18.5814C45.0544 17.8211 44.4381 17.2048 43.6778 17.2048C42.9175 17.2048 42.3012 17.8211 42.3012 18.5814C42.3012 19.3416 42.9175 19.9579 43.6778 19.9579Z" fill="#F0F0F0"/>
<path d="M28.7851 45.8894C36.1784 45.8894 42.1718 39.896 42.1718 32.5027C42.1718 25.1095 36.1784 19.1161 28.7851 19.1161C21.3919 19.1161 15.3984 25.1095 15.3984 32.5027C15.3984 39.896 21.3919 45.8894 28.7851 45.8894Z" fill="#F0F0F0"/>
<path d="M276.004 103.354C272.999 104.241 266.375 104.895 259.091 105.296C251.81 105.694 243.823 105.869 235.936 106.038C222.131 106.335 208.327 106.634 194.525 106.934C192.627 106.976 190.724 107.015 188.814 107.051C187.858 106.42 186.903 105.779 185.958 105.125C187.651 105.134 189.345 105.125 191.025 105.092C198.203 104.95 204.279 104.39 211.201 104.124C221.853 103.713 233.352 104.037 244.454 104.202C255.555 104.37 268.204 104.309 276.004 103.354Z" fill="#F0F0F0"/>
<path d="M64.1302 205.411L20.1254 168.752L62.8754 206.879C62.9581 207.018 63.073 207.136 63.2103 207.222C63.3477 207.308 63.5036 207.361 63.6652 207.375C63.8268 207.388 63.9893 207.364 64.1394 207.302C64.2895 207.241 64.4227 207.144 64.528 207.021C64.6334 206.898 64.7079 206.751 64.7452 206.593C64.7826 206.435 64.7818 206.271 64.7429 206.113C64.704 205.956 64.6281 205.81 64.5216 205.688C64.415 205.566 64.2809 205.471 64.1302 205.411Z" fill="#F0F0F0"/>
<path d="M30.7277 66.5784C31.4879 66.5784 32.1043 65.9621 32.1043 65.2018C32.1043 64.4415 31.4879 63.8252 30.7277 63.8252C29.9674 63.8252 29.3511 64.4415 29.3511 65.2018C29.3511 65.9621 29.9674 66.5784 30.7277 66.5784Z" fill="#F0F0F0"/>
<path d="M146.342 224.708L152.036 224.708L154.745 202.746L146.341 202.746L146.342 224.708Z" fill="#FFB6B6"/>
<path d="M144.889 222.849L146.492 222.849L152.749 220.305L156.103 222.849C157.998 222.849 159.816 223.602 161.156 224.942C162.496 226.282 163.249 228.1 163.249 229.995V230.227L144.89 230.228L144.889 222.849Z" fill="#2F2E41"/>
<path d="M103.701 224.708L98.0068 224.708L95.298 202.746L103.702 202.746L103.701 224.708Z" fill="#FFB6B6"/>
<path d="M105.153 230.228L86.7933 230.227V229.995C86.7935 228.1 87.5464 226.282 88.8865 224.942C90.2266 223.602 92.0442 222.849 93.9394 222.849L97.2934 220.305L103.551 222.849L105.153 222.849L105.153 230.228Z" fill="#2F2E41"/>
<path d="M124.103 56.3938L118.337 60.784L103.022 64.8399C103.022 64.8399 108.51 103.354 105.92 105.944C103.33 108.534 105.666 108.603 105.145 111.968C104.625 115.333 102.551 124.216 102.551 124.216H148.261C148.261 124.216 148.629 118.695 146.376 117.499C144.123 116.304 148.453 110.723 146.612 109.79C144.77 108.857 147.36 100.764 147.36 100.764L152.973 74.2646L138.044 62.5837L135.773 57.1131L124.103 56.3938Z" fill="#00DF5E"/>
<path d="M131.296 90.8094C132.398 90.8094 133.291 89.9163 133.291 88.8146C133.291 87.7129 132.398 86.8198 131.296 86.8198C130.195 86.8198 129.302 87.7129 129.302 88.8146C129.302 89.9163 130.195 90.8094 131.296 90.8094Z" fill="#F2F2F2"/>
<path d="M102.551 124.216L100.666 172.753C100.666 172.753 92.5273 208.602 93.941 209.545C95.3547 210.487 95.9536 216.107 95.9536 216.107L103.965 217.049C103.965 217.049 103.965 213.279 105.85 211.866C107.735 210.452 125.17 144.008 125.17 144.008L142.18 208.25C142.18 208.25 142.606 211.866 144.02 211.866C145.433 211.866 145.905 217.049 145.905 217.049H153.916V211.866C153.916 211.866 157.515 210.724 156.102 206.955C154.688 203.185 148.261 124.216 148.261 124.216H102.551Z" fill="#2F2E41"/>
<path d="M130.09 53.5014C135.425 53.5014 139.75 49.1763 139.75 43.8411C139.75 38.5058 135.425 34.1807 130.09 34.1807C124.754 34.1807 120.429 38.5058 120.429 43.8411C120.429 49.1763 124.754 53.5014 130.09 53.5014Z" fill="#FFB6B6"/>
<path d="M146.611 87.2236L148.496 88.6374L149.439 82.0399L146.611 87.2236Z" fill="black"/>
<path d="M103.926 64.8024C103.926 64.8024 101.569 64.3312 100.156 68.5723C98.742 72.8134 93.5584 88.8355 93.5584 91.6629C93.5584 94.4903 125.84 106.966 125.84 106.966L122.481 95.1823L107.696 87.4218L103.926 64.8024Z" fill="#00DF5E"/>
<path d="M127.337 105.219C130.377 105.219 132.841 102.755 132.841 99.7149C132.841 96.6752 130.377 94.2111 127.337 94.2111C124.298 94.2111 121.834 96.6752 121.834 99.7149C121.834 102.755 124.298 105.219 127.337 105.219Z" fill="#FFB6B6"/>
<path d="M107.265 81.5847L107.696 87.4218L121.368 94.598L109.207 86.441L107.265 81.5847Z" fill="black"/>
<path d="M140.133 82.4169H139.956V77.5579C139.956 77.1886 139.883 76.8229 139.742 76.4817C139.6 76.1405 139.393 75.8305 139.132 75.5693C138.871 75.3082 138.561 75.1011 138.22 74.9597C137.878 74.8184 137.513 74.7457 137.143 74.7457H126.849C126.48 74.7457 126.114 74.8184 125.773 74.9597C125.432 75.101 125.122 75.3082 124.86 75.5693C124.599 75.8305 124.392 76.1405 124.251 76.4817C124.109 76.8229 124.037 77.1886 124.037 77.5579V104.215C124.037 104.584 124.109 104.95 124.251 105.291C124.392 105.632 124.599 105.942 124.86 106.203C125.122 106.464 125.432 106.671 125.773 106.813C126.114 106.954 126.48 107.027 126.849 107.027H137.143C137.513 107.027 137.878 106.954 138.22 106.813C138.561 106.671 138.871 106.464 139.132 106.203C139.393 105.942 139.6 105.632 139.742 105.291C139.883 104.95 139.956 104.584 139.956 104.215V85.8756H140.133V82.4169Z" fill="#F0F0F0"/>
<path d="M152.973 74.2646C152.973 74.2646 154.387 75.2071 155.329 79.4482C156.272 83.6893 162.398 99.7114 160.042 103.481C157.686 107.251 156.99 111.275 148.979 105.62L137.894 95.4703L145.905 87.9305L149.203 90.2867L152.973 74.2646Z" fill="#00DF5E"/>
<path d="M132.122 86.6266C133.423 86.6266 134.478 85.5717 134.478 84.2704C134.478 82.9691 133.423 81.9142 132.122 81.9142C130.821 81.9142 129.766 82.9691 129.766 84.2704C129.766 85.5717 130.821 86.6266 132.122 86.6266Z" fill="#00DF5E"/>
<path d="M138.943 94.9361C141.982 94.9361 144.447 92.4719 144.447 89.4323C144.447 86.3926 141.982 83.9285 138.943 83.9285C135.903 83.9285 133.439 86.3926 133.439 89.4323C133.439 92.4719 135.903 94.9361 138.943 94.9361Z" fill="#FFB6B6"/>
<path d="M107.005 99.2011L122.805 106.19L106.566 103.016L107.005 99.2011Z" fill="black"/>
<path d="M120.343 45.7662L119.017 40.7183C118.671 39.4012 118.322 38.0575 118.4 36.6979C118.477 35.3383 119.054 33.9353 120.2 33.1987C121.345 32.4622 123.094 32.6361 123.831 33.7813C123.971 31.9528 125.634 30.5463 127.399 30.0481C129.164 29.5498 131.038 29.7469 132.869 29.8309C134.701 29.915 136.635 29.8563 138.216 28.9272C138.336 29.2887 138.329 29.6807 138.194 30.0371C138.059 30.3934 137.805 30.6922 137.475 30.8831C137.868 30.9904 138.287 30.9443 138.647 30.7543C139.008 30.5642 139.282 30.2443 139.416 29.8594C139.428 30.9184 139.037 31.9422 138.321 32.7231C139.003 32.3846 139.787 32.3121 140.52 32.5196C141.253 32.7271 141.882 33.1998 142.286 33.8458C143.093 35.2446 142.641 37.0014 142.169 38.5457L139.746 46.472C139.378 45.2671 139.309 43.995 139.112 42.7507C138.916 41.5064 138.566 40.2357 137.745 39.2807C136.923 38.3256 135.528 37.7724 134.361 38.2467C133.706 38.5127 133.207 39.0525 132.616 39.4399C131.403 40.2348 129.86 40.3488 128.419 40.187C126.978 40.0253 125.574 39.6149 124.133 39.451C123.231 39.3484 122.224 39.3756 121.543 39.9765C121.075 40.4629 120.766 41.0802 120.657 41.7465C120.335 43.0745 120.209 44.4422 120.282 45.8066" fill="#2F2E41"/>
</g>
</svg>
