<svg width="179" height="179" viewBox="0 0 179 179" fill="none" xmlns="http://www.w3.org/2000/svg">
<path d="M83.0353 156.745L85.4329 156.987L84.6477 164.757L82.1438 164.504C81.3902 164.428 80.7609 164.207 80.2562 163.842C79.7512 163.479 79.3851 162.993 79.1578 162.385C78.9303 161.78 78.8572 161.075 78.9384 160.271C79.0202 159.461 79.2348 158.779 79.5822 158.224C79.9293 157.671 80.3944 157.266 80.9774 157.008C81.5602 156.753 82.2462 156.665 83.0353 156.745ZM84.4077 157.727L83.0116 157.586C82.3692 157.521 81.8243 157.591 81.3769 157.796C80.9295 158.001 80.5789 158.322 80.3253 158.759C80.0716 159.196 79.9128 159.73 79.8489 160.363C79.7856 160.99 79.8334 161.54 79.9925 162.014C80.1514 162.49 80.4221 162.87 80.8048 163.154C81.1872 163.44 81.6819 163.614 82.2889 163.675L83.7912 163.827L84.4077 157.727Z" fill="white"/>
<path d="M73.156 155.152L71.0182 162.663L66.4853 161.373L66.7149 160.566L70.3383 161.597L71.0607 159.059L67.672 158.095L67.9016 157.288L71.2903 158.252L72.0168 155.7L68.3347 154.652L68.5643 153.845L73.156 155.152Z" fill="white"/>
<path d="M55.8456 154.922C55.7197 155.29 55.7573 155.641 55.9583 155.974C56.1593 156.307 56.473 156.576 56.8993 156.781C57.211 156.93 57.5079 157.011 57.7901 157.022C58.0699 157.032 58.3175 156.98 58.5328 156.867C58.7458 156.752 58.9062 156.582 59.014 156.357C59.1041 156.169 59.137 155.986 59.1125 155.808C59.0846 155.631 59.021 155.464 58.9218 155.307C58.8215 155.151 58.7071 155.008 58.5788 154.876C58.4493 154.746 58.3275 154.632 58.2133 154.535L57.5906 154C57.4303 153.864 57.2583 153.699 57.0743 153.507C56.8881 153.313 56.727 153.093 56.5911 152.848C56.4518 152.603 56.369 152.335 56.3426 152.043C56.3163 151.752 56.3823 151.441 56.5406 151.111C56.7231 150.73 56.9878 150.434 57.3345 150.223C57.6789 150.01 58.0848 149.905 58.5522 149.906C59.0172 149.907 59.5202 150.037 60.0611 150.296C60.5653 150.538 60.9629 150.829 61.2538 151.168C61.5424 151.507 61.7224 151.873 61.7936 152.265C61.8625 152.656 61.8184 153.051 61.6611 153.449L60.781 153.027C60.8857 152.75 60.9018 152.487 60.8295 152.238C60.7539 151.99 60.616 151.766 60.4161 151.566C60.2127 151.367 59.9712 151.2 59.6916 151.066C59.3662 150.91 59.0486 150.822 58.7391 150.804C58.4284 150.787 58.1518 150.838 57.9093 150.955C57.6656 151.075 57.4822 151.264 57.3591 151.52C57.2469 151.754 57.221 151.976 57.2813 152.185C57.3415 152.394 57.4563 152.596 57.6254 152.79C57.7946 152.984 57.9865 153.175 58.201 153.362L58.9486 154.025C59.4228 154.447 59.75 154.882 59.9301 155.329C60.1102 155.777 60.0865 156.238 59.8589 156.712C59.6697 157.106 59.3982 157.399 59.0443 157.59C58.6871 157.782 58.2883 157.873 57.8481 157.862C57.4045 157.852 56.9581 157.739 56.5089 157.524C56.0551 157.306 55.6908 157.031 55.4159 156.699C55.1399 156.369 54.9658 156.015 54.8937 155.637C54.8193 155.257 54.8615 154.887 55.0205 154.526L55.8456 154.922Z" fill="white"/>
<path d="M52.0802 146.029L47.5597 152.397L43.7167 149.669L44.2023 148.985L47.2742 151.165L48.8017 149.014L45.9287 146.974L46.4143 146.29L49.2873 148.33L50.8235 146.166L47.7018 143.95L48.1874 143.266L52.0802 146.029Z" fill="white"/>
<path d="M33.0608 139.959L38.6652 134.521L39.3025 135.178L37.8655 142.501L37.9186 142.556L42.319 138.286L42.9775 138.965L37.3731 144.403L36.7358 143.746L38.1731 136.401L38.12 136.346L33.7087 140.627L33.0608 139.959Z" fill="white"/>
<path d="M27.477 133.005L31.7013 127.46L31.6511 127.383L24.8831 129.051L24.3392 128.223L32.4414 126.336L32.9769 127.152L28.0209 133.833L27.477 133.005Z" fill="white"/>
<path d="M21.7181 113.716C22.4796 113.402 23.1943 113.269 23.8623 113.315C24.5303 113.361 25.1135 113.562 25.612 113.918C26.1105 114.273 26.4867 114.758 26.7405 115.374C26.9944 115.99 27.0698 116.6 26.9666 117.203C26.8635 117.806 26.5912 118.36 26.15 118.864C25.7087 119.367 25.1074 119.776 24.3459 120.09C23.5845 120.404 22.8697 120.538 22.2017 120.491C21.5337 120.445 20.9505 120.244 20.452 119.889C19.9535 119.534 19.5774 119.048 19.3235 118.432C19.0696 117.816 18.9943 117.207 19.0974 116.603C19.2006 116 19.4728 115.446 19.9141 114.943C20.3553 114.439 20.9567 114.03 21.7181 113.716ZM22.067 114.562C21.4418 114.82 20.9573 115.142 20.6135 115.529C20.2687 115.913 20.059 116.328 19.9844 116.774C19.9088 117.218 19.9611 117.658 20.1413 118.095C20.3216 118.532 20.5953 118.883 20.9625 119.146C21.3288 119.408 21.7701 119.554 22.2864 119.586C22.8017 119.616 23.372 119.502 23.9971 119.244C24.6222 118.986 25.1072 118.665 25.452 118.281C25.7959 117.895 26.0056 117.48 26.0811 117.036C26.1557 116.59 26.1029 116.149 25.9227 115.711C25.7425 115.274 25.4692 114.925 25.103 114.664C24.7358 114.4 24.2945 114.253 23.7791 114.224C23.2628 114.192 22.6921 114.305 22.067 114.562Z" fill="white"/>
<path d="M23.3949 105.78L15.7647 107.442L15.5634 106.518L22.374 105.035L21.6013 101.488L22.421 101.309L23.3949 105.78Z" fill="white"/>
<path d="M13.7637 95.3297L20.2279 92.7215L20.2239 92.63L13.5536 90.6062L13.5095 89.6157L21.4384 92.1332L21.4818 93.1084L13.8078 96.3201L13.7637 95.3297Z" fill="white"/>
<path d="M21.6195 82.8892L13.8783 81.8606L14.4991 77.1887L15.3307 77.2992L14.8345 81.0337L17.4501 81.3812L17.9142 77.8886L18.7458 77.9991L18.2817 81.4917L20.9125 81.8413L21.4167 78.0463L22.2483 78.1568L21.6195 82.8892Z" fill="white"/>
<path d="M24.3768 69.2497L23.6447 71.5457L16.2046 69.1733L16.9692 66.7756C17.1993 66.0539 17.5452 65.4838 18.0068 65.0653C18.466 64.6461 19.0165 64.3881 19.6584 64.2912C20.2979 64.1936 21.0027 64.2676 21.7728 64.5132C22.5478 64.7603 23.1711 65.1111 23.6425 65.5656C24.1115 66.0193 24.412 66.5581 24.5439 67.1818C24.6735 67.8048 24.6178 68.4941 24.3768 69.2497ZM23.1328 70.3899L23.5591 69.053C23.7552 68.4378 23.7991 67.8902 23.6907 67.41C23.5824 66.9299 23.3406 66.5206 22.9656 66.1823C22.5906 65.8439 22.1003 65.5782 21.4948 65.3851C20.8942 65.1936 20.3458 65.1268 19.8498 65.1847C19.3513 65.2419 18.9236 65.4284 18.5668 65.7442C18.2075 66.0592 17.9352 66.5073 17.7499 67.0886L17.2911 68.5272L23.1328 70.3899Z" fill="white"/>
<path d="M27.6554 52.2461C28.3788 52.6398 28.933 53.1106 29.3178 53.6586C29.7026 54.2066 29.914 54.7861 29.952 55.3971C29.9899 56.0081 29.8497 56.6061 29.5314 57.1912C29.2131 57.7762 28.7871 58.2187 28.2534 58.5187C27.7198 58.8187 27.1184 58.9559 26.4493 58.9305C25.7801 58.905 25.0838 58.6954 24.3604 58.3018C23.6369 57.9081 23.0828 57.4373 22.698 56.8893C22.3132 56.3413 22.1018 55.7618 22.0638 55.1508C22.0258 54.5398 22.166 53.9417 22.4843 53.3567C22.8027 52.7717 23.2287 52.3292 23.7623 52.0292C24.296 51.7292 24.8974 51.5919 25.5665 51.6174C26.2356 51.6429 26.9319 51.8525 27.6554 52.2461ZM27.218 53.05C26.624 52.7268 26.0687 52.5534 25.5519 52.5298C25.0364 52.5039 24.5819 52.6025 24.1886 52.8255C23.7964 53.0462 23.4874 53.3642 23.2614 53.7795C23.0354 54.1949 22.9356 54.6282 22.9621 55.0796C22.9897 55.5287 23.1538 55.9638 23.4543 56.3849C23.756 56.8037 24.2038 57.1747 24.7978 57.4979C25.3917 57.8211 25.9465 57.9956 26.462 58.0215C26.9788 58.0451 27.4332 57.9465 27.8253 57.7258C28.2187 57.5028 28.5284 57.1837 28.7544 56.7684C28.9803 56.353 29.0795 55.9208 29.0519 55.4717C29.0254 55.0203 28.8614 54.5852 28.5597 54.1663C28.2592 53.7453 27.8119 53.3731 27.218 53.05Z" fill="white"/>
<path d="M34.8602 48.5424L28.795 43.6234L30.4571 41.5741C30.8414 41.1002 31.2378 40.7769 31.6463 40.6042C32.0528 40.4298 32.4555 40.3833 32.8543 40.4646C33.2532 40.5458 33.6313 40.7314 33.9886 41.0212C34.346 41.311 34.6036 41.6411 34.7615 42.0114C34.9195 42.3816 34.9549 42.7818 34.8679 43.212C34.7788 43.6406 34.5438 44.0898 34.1627 44.5597L32.8177 46.2182L32.1543 45.6802L33.4801 44.0454C33.7427 43.7216 33.9067 43.4226 33.972 43.1483C34.039 42.872 34.0216 42.619 33.9199 42.3892C33.8179 42.1559 33.6454 41.9408 33.4026 41.7438C33.1597 41.5469 32.9107 41.4201 32.6554 41.3636C32.4001 41.3072 32.1422 41.3386 31.8818 41.4579C31.6193 41.5757 31.3552 41.7984 31.0894 42.1262L30.0422 43.4174L35.4559 47.808L34.8602 48.5424ZM34.451 43.4778L38.3862 44.1949L37.6944 45.0478L33.7785 44.307L34.451 43.4778Z" fill="white"/>
<path d="M48.6349 34.7974L44.215 28.3594L48.0753 25.7092L48.5501 26.4008L45.4694 28.5158L46.9629 30.6911L49.7543 28.7746L50.2291 29.4662L47.4377 31.3827L49.4145 34.2622L48.6349 34.7974Z" fill="white"/>
<path d="M58.427 28.7204L55.1602 21.6274L57.5568 20.5236C58.111 20.2683 58.6094 20.1535 59.0522 20.1791C59.4939 20.2023 59.8757 20.3386 60.1976 20.5877C60.5195 20.8369 60.7766 21.1705 60.9691 21.5884C61.1616 22.0063 61.2468 22.4162 61.2249 22.8182C61.2029 23.2201 61.0578 23.5948 60.7896 23.9422C60.5203 24.2873 60.1109 24.5864 59.5614 24.8395L57.6219 25.7328L57.2646 24.957L59.1764 24.0765C59.5551 23.9021 59.8343 23.7063 60.0142 23.4891C60.1963 23.2709 60.2926 23.0362 60.3029 22.7852C60.3145 22.5308 60.2548 22.2616 60.124 21.9776C59.9932 21.6936 59.8258 21.4698 59.6218 21.3063C59.4177 21.1428 59.1725 21.0571 58.8861 21.049C58.5987 21.0387 58.2634 21.1217 57.8801 21.2983L56.37 21.9938L59.2859 28.3248L58.427 28.7204ZM60.2982 23.9964L63.5113 26.3788L62.5138 26.8382L59.3284 24.443L60.2982 23.9964Z" fill="white"/>
<path d="M74.5143 18.9458C74.7169 19.7441 74.7478 20.4706 74.607 21.1252C74.4663 21.7799 74.1846 22.3287 73.762 22.7716C73.3394 23.2145 72.8053 23.5179 72.1597 23.6817C71.5142 23.8455 70.9001 23.8335 70.3174 23.6456C69.7347 23.4578 69.2255 23.1097 68.7896 22.6014C68.3538 22.093 68.0346 21.4397 67.832 20.6414C67.6294 19.843 67.5985 19.1166 67.7392 18.4619C67.88 17.8073 68.1617 17.2585 68.5843 16.8155C69.0069 16.3726 69.541 16.0692 70.1865 15.9054C70.8321 15.7416 71.4462 15.7536 72.0289 15.9415C72.6116 16.1293 73.1208 16.4774 73.5567 16.9858C73.9925 17.4941 74.3117 18.1474 74.5143 18.9458ZM73.6273 19.1708C73.4609 18.5154 73.2109 17.9901 72.8772 17.5948C72.546 17.1989 72.1649 16.9324 71.7341 16.7952C71.3058 16.6574 70.8624 16.6466 70.4041 16.7629C69.9458 16.8792 69.56 17.1003 69.2467 17.4264C68.9359 17.7518 68.7281 18.1677 68.6232 18.6743C68.5208 19.1802 68.5527 19.7609 68.719 20.4163C68.8853 21.0717 69.1341 21.5973 69.4654 21.9932C69.7991 22.3885 70.1801 22.655 70.6085 22.7929C71.0393 22.9301 71.4839 22.9405 71.9422 22.8242C72.4005 22.7079 72.785 22.4871 73.0958 22.1617C73.4091 21.8357 73.617 21.4197 73.7194 20.9138C73.8243 20.4072 73.7936 19.8263 73.6273 19.1708Z" fill="white"/>
<path d="M87.8925 13.555L88.3009 21.3535L87.387 21.4014L82.8168 15.5009L82.7407 15.5049L83.0613 21.6279L82.1169 21.6773L81.7086 13.8789L82.6225 13.831L87.2087 19.7459L87.2848 19.742L86.9634 13.6037L87.8925 13.555Z" fill="white"/>
<path d="M95.9043 14.6695L96.0137 13.8378L101.821 14.6016L101.711 15.4333L99.2765 15.1131L98.3675 22.0238L97.4299 21.9005L98.3389 14.9897L95.9043 14.6695Z" fill="white"/>
<path d="M110.932 20.9997L110.694 21.8041L107.418 20.8345L107.656 20.0301L110.932 20.9997Z" fill="white"/>
<path d="M115.979 26.8622L119.338 19.8125L123.593 21.8399L123.232 22.5972L119.831 20.9766L118.696 23.3586L121.877 24.8743L121.516 25.6316L118.335 24.1159L117.193 26.5117L120.649 28.1586L120.289 28.9159L115.979 26.8622Z" fill="white"/>
<path d="M135.758 29.5745L131.171 35.8946L130.431 35.3571L130.588 27.8954L130.526 27.8506L126.925 32.8129L126.16 32.2575L130.747 25.9373L131.487 26.4748L131.333 33.9579L131.395 34.0027L135.005 29.028L135.758 29.5745Z" fill="white"/>
<path d="M138.188 42.3326L136.539 40.5749L142.235 35.2327L143.957 37.0683C144.475 37.6208 144.804 38.2006 144.945 38.8076C145.088 39.4128 145.045 40.0193 144.817 40.627C144.59 41.2331 144.182 41.8126 143.593 42.3656C142.999 42.922 142.39 43.2954 141.763 43.4858C141.138 43.6744 140.521 43.6744 139.912 43.4858C139.305 43.2955 138.73 42.9111 138.188 42.3326ZM137.798 40.6907L138.758 41.7142C139.2 42.1852 139.657 42.4903 140.129 42.6295C140.601 42.7687 141.076 42.757 141.554 42.5943C142.032 42.4315 142.503 42.1328 142.967 41.6981C143.427 41.2668 143.752 40.8204 143.943 40.359C144.136 39.8957 144.181 39.4314 144.079 38.966C143.979 38.4987 143.721 38.0426 143.303 37.5976L142.27 36.4963L137.798 40.6907Z" fill="white"/>
<path d="M151.009 58.0217C150.871 57.7468 150.812 57.4622 150.832 57.1677C150.854 56.8721 150.944 56.5991 151.103 56.3486C151.263 56.1005 151.48 55.9074 151.755 55.7693C152.032 55.63 152.317 55.5709 152.609 55.5919C152.905 55.6141 153.176 55.7051 153.425 55.8649C153.675 56.0236 153.869 56.2403 154.007 56.5152C154.147 56.7923 154.205 57.0775 154.181 57.3708C154.161 57.6653 154.072 57.9366 153.912 58.1848C153.755 58.4341 153.539 58.6283 153.261 58.7676C152.987 58.9057 152.701 58.9636 152.406 58.9415C152.111 58.9216 151.839 58.8323 151.588 58.6737C151.341 58.5161 151.148 58.2988 151.009 58.0217Z" fill="white"/>
<path d="M163.974 77.8418L164.142 78.7725L159.053 79.6874C158.527 79.7819 158.036 79.7423 157.579 79.5689C157.124 79.3974 156.738 79.1092 156.42 78.7041C156.104 78.2985 155.892 77.7942 155.784 77.1913C155.675 76.5883 155.698 76.0417 155.853 75.5516C156.01 75.061 156.272 74.655 156.637 74.3336C157.006 74.0142 157.453 73.8072 157.979 73.7128L163.068 72.7979L163.235 73.7286L158.221 74.63C157.846 74.6975 157.527 74.8401 157.264 75.0578C157.003 75.2751 156.816 75.5515 156.704 75.8868C156.594 76.2243 156.577 76.6069 156.654 77.0347C156.731 77.4626 156.88 77.8155 157.1 78.0936C157.323 78.3712 157.594 78.5652 157.914 78.6756C158.236 78.7881 158.585 78.8106 158.961 78.7432L163.974 77.8418Z" fill="white"/>
<path d="M164.78 87.2352L156.974 87.4497L156.948 86.5044L164.754 86.2899L164.78 87.2352Z" fill="white"/>
<path d="M155.203 104.72L155.777 102.38L163.361 104.241L162.761 106.685C162.581 107.421 162.275 108.013 161.843 108.462C161.413 108.911 160.881 109.206 160.247 109.346C159.616 109.487 158.908 109.461 158.123 109.269C157.333 109.075 156.687 108.767 156.186 108.346C155.687 107.925 155.351 107.408 155.177 106.795C155.005 106.182 155.014 105.49 155.203 104.72ZM156.366 103.498L156.032 104.861C155.878 105.488 155.872 106.037 156.012 106.509C156.153 106.981 156.422 107.373 156.819 107.685C157.216 107.997 157.724 108.229 158.341 108.38C158.953 108.53 159.505 108.56 159.996 108.468C160.489 108.377 160.903 108.162 161.238 107.823C161.575 107.484 161.816 107.018 161.961 106.426L162.321 104.959L156.366 103.498Z" fill="white"/>
<path d="M152.247 114.281L159.386 117.445L157.477 121.754L156.71 121.414L158.236 117.97L155.824 116.901L154.396 120.122L153.629 119.782L155.057 116.561L152.631 115.485L151.079 118.985L150.313 118.645L152.247 114.281Z" fill="white"/>
<path d="M149.605 131.39C149.952 131.566 150.305 131.578 150.663 131.425C151.021 131.273 151.331 131 151.593 130.606C151.784 130.318 151.905 130.035 151.956 129.758C152.005 129.482 151.988 129.229 151.906 129C151.822 128.773 151.676 128.591 151.468 128.453C151.295 128.337 151.118 128.279 150.938 128.279C150.759 128.282 150.585 128.321 150.415 128.398C150.247 128.475 150.089 128.569 149.94 128.677C149.794 128.787 149.665 128.892 149.553 128.992L148.935 129.534C148.778 129.673 148.592 129.821 148.375 129.976C148.157 130.133 147.917 130.262 147.655 130.363C147.394 130.466 147.117 130.511 146.824 130.496C146.532 130.482 146.233 130.373 145.928 130.17C145.577 129.937 145.321 129.633 145.16 129.26C144.997 128.89 144.949 128.473 145.016 128.01C145.081 127.55 145.28 127.07 145.612 126.571C145.922 126.105 146.266 125.752 146.643 125.511C147.018 125.273 147.405 125.146 147.804 125.13C148.201 125.116 148.585 125.215 148.958 125.426L148.417 126.239C148.157 126.096 147.899 126.044 147.642 126.081C147.387 126.121 147.146 126.226 146.919 126.396C146.694 126.57 146.495 126.786 146.323 127.044C146.123 127.344 145.992 127.647 145.931 127.951C145.871 128.256 145.882 128.537 145.965 128.793C146.05 129.051 146.211 129.259 146.448 129.417C146.664 129.561 146.88 129.617 147.095 129.587C147.311 129.556 147.527 129.471 147.742 129.33C147.958 129.19 148.174 129.027 148.389 128.84L149.15 128.192C149.634 127.782 150.11 127.518 150.578 127.402C151.046 127.286 151.499 127.374 151.937 127.666C152.301 127.908 152.553 128.218 152.693 128.595C152.834 128.975 152.868 129.383 152.796 129.817C152.724 130.255 152.55 130.681 152.274 131.096C151.995 131.515 151.672 131.838 151.305 132.064C150.94 132.291 150.565 132.414 150.18 132.432C149.794 132.453 149.433 132.36 149.098 132.152L149.605 131.39Z" fill="white"/>
<path d="M145.412 139.777L139.599 134.563L140.23 133.859L146.044 139.073L145.412 139.777Z" fill="white"/>
<path d="M133.985 147.119C134.213 147.264 134.444 147.371 134.68 147.441C134.914 147.514 135.151 147.547 135.388 147.539C135.623 147.533 135.856 147.484 136.087 147.392C136.318 147.301 136.543 147.165 136.76 146.986C137.117 146.692 137.366 146.332 137.506 145.907C137.647 145.481 137.655 145.018 137.532 144.517C137.409 144.016 137.132 143.504 136.702 142.982C136.272 142.46 135.822 142.092 135.351 141.877C134.881 141.662 134.421 141.585 133.971 141.646C133.52 141.707 133.109 141.892 132.736 142.199C132.391 142.483 132.148 142.808 132.006 143.171C131.864 143.539 131.831 143.918 131.907 144.31C131.983 144.706 132.172 145.088 132.476 145.457L132.214 145.594L134.026 144.1L134.56 144.748L132.265 146.639L131.731 145.992C131.322 145.495 131.072 144.977 130.982 144.435C130.89 143.895 130.946 143.372 131.15 142.864C131.354 142.36 131.695 141.911 132.174 141.516C132.707 141.076 133.28 140.816 133.891 140.734C134.5 140.653 135.108 140.752 135.715 141.029C136.32 141.307 136.885 141.765 137.408 142.4C137.801 142.877 138.091 143.358 138.277 143.844C138.463 144.333 138.549 144.809 138.535 145.272C138.521 145.734 138.412 146.17 138.208 146.578C138.005 146.987 137.709 147.35 137.323 147.669C137.005 147.931 136.669 148.127 136.315 148.257C135.961 148.391 135.604 148.459 135.245 148.462C134.885 148.469 134.533 148.412 134.189 148.29C133.846 148.17 133.527 147.987 133.231 147.74L133.985 147.119Z" fill="white"/>
<path d="M123.077 156.863L119.336 150.008L120.139 149.57L126.812 152.913L126.879 152.876L123.941 147.494L124.771 147.041L128.513 153.896L127.71 154.334L121.016 150.985L120.949 151.022L123.894 156.417L123.077 156.863Z" fill="white"/>
<path d="M103.415 156.977C103.717 156.914 104.007 156.931 104.286 157.026C104.566 157.123 104.807 157.281 105.008 157.498C105.207 157.717 105.337 157.976 105.4 158.278C105.463 158.581 105.447 158.871 105.352 159.148C105.254 159.428 105.096 159.668 104.878 159.866C104.66 160.068 104.401 160.199 104.1 160.262C103.796 160.325 103.506 160.308 103.228 160.21C102.949 160.115 102.71 159.958 102.511 159.74C102.31 159.525 102.178 159.265 102.115 158.962C102.052 158.661 102.07 158.37 102.167 158.09C102.262 157.811 102.419 157.57 102.636 157.369C102.852 157.171 103.112 157.04 103.415 156.977Z" fill="white"/>
<circle cx="89.5" cy="89.5" r="88.751" stroke="white" stroke-width="1.49791"/>
<circle cx="89.5001" cy="89.5001" r="56.9981" stroke="white" stroke-width="2.09167"/>
</svg>
